<svg width="125" height="125" viewBox="0 0 125 125" fill="none" xmlns="http://www.w3.org/2000/svg">
<g id="ri:24-hours-fill">
<path id="Vector" d="M62.526 67.724C65.6422 67.7238 68.6872 68.6554 71.2699 70.3991C73.8526 72.1428 75.8549 74.6189 77.0195 77.5092C78.1842 80.3996 78.458 83.5721 77.8058 86.6193C77.1535 89.6665 75.6051 92.449 73.3594 94.6094L63.4114 104.177H78.151V114.594H46.901L46.8958 105.615L66.1354 87.099C66.7562 86.5022 67.2193 85.7609 67.4834 84.9413C67.7475 84.1217 67.8042 83.2495 67.6486 82.4026C67.4929 81.5557 67.1297 80.7606 66.5915 80.0885C66.0532 79.4163 65.3567 78.8882 64.5643 78.5512C63.772 78.2142 62.9084 78.0789 62.0509 78.1575C61.1934 78.236 60.3688 78.5259 59.6508 79.0013C58.9328 79.4766 58.3439 80.1226 57.9367 80.8813C57.5296 81.64 57.3169 82.4879 57.3177 83.349H46.901C46.901 79.2049 48.5472 75.2307 51.4775 72.3004C54.4077 69.3702 58.382 67.724 62.526 67.724ZM93.776 67.724V88.5573H104.193V67.724H114.609V114.599H104.193V98.974H83.3594V67.724H93.776ZM20.8594 62.5156C20.8529 68.7635 22.2543 74.9325 24.9593 80.5644C27.6644 86.1963 31.6036 91.1464 36.4844 95.0469V107.63C28.5639 103.06 21.987 96.4838 17.4155 88.5641C12.8439 80.6443 10.439 71.6601 10.4427 62.5156H20.8594ZM62.526 10.4323C89.5312 10.4323 111.74 30.9844 114.349 57.3073H103.87C102.855 49.2606 99.5142 41.6849 94.2569 35.5091C88.9996 29.3333 82.0545 24.8259 74.273 22.5395C66.4915 20.2531 58.212 20.2872 50.4495 22.6374C42.6871 24.9877 35.7792 29.5521 30.5729 35.7708L41.6927 46.8906H10.4427V15.6406L23.1771 28.3802C28.0618 22.7391 34.1042 18.2162 40.8932 15.1191C47.6823 12.0221 55.0587 10.4236 62.5208 10.4323" fill="#032893"/>
</g>
</svg>
