<svg width="106" height="104" viewBox="0 0 106 104" fill="none" xmlns="http://www.w3.org/2000/svg">
<g id="material-symbols:call-sharp">
<path id="Vector" d="M88.1125 91C78.9111 91 69.8025 89.05 60.7866 85.15C51.7707 81.25 43.5807 75.6889 36.2167 68.4667C28.8526 61.2444 23.1846 53.2278 19.2125 44.4167C15.2404 35.6056 13.2529 26.65 13.25 17.55V13H39.3083L43.3937 34.775L30.8062 47.2333C32.4257 50.05 34.2292 52.7222 36.2167 55.25C38.2042 57.7778 40.3389 60.125 42.6208 62.2917C44.7556 64.3861 47.0934 66.391 49.6345 68.3063C52.1756 70.2217 54.9168 72.0084 57.8583 73.6667L70.6667 61.1L92.75 65.5417V91H88.1125Z" fill="#032893"/>
</g>
</svg>
