<svg width="66" height="66" viewBox="0 0 66 66" fill="none" xmlns="http://www.w3.org/2000/svg">
<path d="M51.5625 20.6248H51.4388C50.9139 16.1026 48.7456 11.931 45.346 8.90306C41.9463 5.87515 37.5525 4.20215 33 4.20215C28.4475 4.20215 24.0537 5.87515 20.654 8.90306C17.2544 11.931 15.0861 16.1026 14.5612 20.6248H14.4375C11.7025 20.6248 9.07943 21.7113 7.14546 23.6453C5.21149 25.5792 4.125 28.2023 4.125 30.9373C4.125 33.6724 5.21149 36.2954 7.14546 38.2294C9.07943 40.1633 11.7025 41.2498 14.4375 41.2498H18.5625V22.6873C18.5625 18.8582 20.0836 15.186 22.7911 12.4785C25.4987 9.7709 29.1709 8.24981 33 8.24981C36.8291 8.24981 40.5013 9.7709 43.2089 12.4785C45.9164 15.186 47.4375 18.8582 47.4375 22.6873V43.3123C47.4361 45.202 46.786 47.034 45.596 48.5018C44.4059 49.9697 42.7479 50.9846 40.8994 51.3767C40.3488 49.4457 39.1129 47.7818 37.4233 46.6968C35.7337 45.6119 33.7065 45.1804 31.7215 45.4832C29.7365 45.786 27.9301 46.8023 26.6408 48.3416C25.3516 49.881 24.668 51.8377 24.7181 53.845C24.7683 55.8523 25.5489 57.7724 26.9134 59.2454C28.278 60.7184 30.1329 61.6432 32.1306 61.8465C34.1282 62.0497 36.1314 61.5174 37.7646 60.3494C39.3979 59.1813 40.5491 57.4578 41.0025 55.5017C43.9292 55.0678 46.6035 53.5997 48.5408 51.3635C50.4781 49.1272 51.5501 46.271 51.5625 43.3123V41.2498C54.2975 41.2498 56.9206 40.1633 58.8545 38.2294C60.7885 36.2954 61.875 33.6724 61.875 30.9373C61.875 28.2023 60.7885 25.5792 58.8545 23.6453C56.9206 21.7113 54.2975 20.6248 51.5625 20.6248ZM8.25 30.9373C8.25 29.2963 8.9019 27.7225 10.0623 26.5621C11.2227 25.4017 12.7965 24.7498 14.4375 24.7498V37.1248C12.7965 37.1248 11.2227 36.4729 10.0623 35.3125C8.9019 34.1522 8.25 32.5783 8.25 30.9373ZM33 57.7498C32.1842 57.7498 31.3866 57.5079 30.7083 57.0546C30.0299 56.6014 29.5012 55.9571 29.189 55.2034C28.8768 54.4496 28.7951 53.6202 28.9543 52.8201C29.1134 52.0199 29.5063 51.2849 30.0832 50.708C30.6601 50.1311 31.3951 49.7382 32.1953 49.5791C32.9954 49.4199 33.8248 49.5016 34.5786 49.8138C35.3323 50.126 35.9766 50.6547 36.4298 51.3331C36.8831 52.0114 37.125 52.809 37.125 53.6248C37.125 54.7188 36.6904 55.768 35.9168 56.5416C35.1432 57.3152 34.094 57.7498 33 57.7498ZM51.5625 37.1248V24.7498C53.2035 24.7498 54.7773 25.4017 55.9377 26.5621C57.0981 27.7225 57.75 29.2963 57.75 30.9373C57.75 32.5783 57.0981 34.1522 55.9377 35.3125C54.7773 36.4729 53.2035 37.1248 51.5625 37.1248Z" fill="white"/>
</svg>
