<svg xmlns="http://www.w3.org/2000/svg" xmlns:xlink="http://www.w3.org/1999/xlink" width="500" zoomAndPan="magnify" viewBox="0 0 375 374.999991" height="500" preserveAspectRatio="xMidYMid meet" version="1.0"><defs><g/><clipPath id="93b5c3ad40"><path d="M 48 197 L 86 197 L 86 241.710938 L 48 241.710938 Z M 48 197 " clip-rule="nonzero"/></clipPath><clipPath id="e19b0cdc63"><path d="M 89 197 L 127 197 L 127 241.710938 L 89 241.710938 Z M 89 197 " clip-rule="nonzero"/></clipPath><clipPath id="84a68e9b65"><path d="M 31.988281 139 L 86 139 L 86 194 L 31.988281 194 Z M 31.988281 139 " clip-rule="nonzero"/></clipPath><clipPath id="6e926fb30c"><path d="M 89 138.960938 L 142.238281 138.960938 L 142.238281 194 L 89 194 Z M 89 138.960938 " clip-rule="nonzero"/></clipPath></defs><rect x="-37.5" width="450" fill="#ffffff" y="-37.499999" height="449.999989" fill-opacity="1"/><rect x="-37.5" width="450" fill="#2ab7ca" y="-37.499999" height="449.999989" fill-opacity="1"/><path stroke-linecap="butt" transform="matrix(0, -0.75, 0.75, 0, 150.423057, 241.545438)" fill="none" stroke-linejoin="miter" d="M -0.00191635 1.998424 L 132.211634 1.998424 " stroke="#eeeef2" stroke-width="4" stroke-opacity="1" stroke-miterlimit="4"/><path fill="#fed766" d="M 68.820312 210.613281 C 68.953125 210.546875 69.105469 210.59375 69.195312 210.703125 C 71.628906 214.617188 74.351562 216.898438 75.832031 217.980469 C 76.03125 217.828125 76.230469 217.671875 76.40625 217.496094 C 76.5625 217.363281 76.738281 217.207031 76.914062 217.074219 C 77.203125 216.832031 77.511719 216.585938 77.800781 216.320312 C 77.402344 216.167969 77.027344 216.011719 76.628906 215.792969 C 74.902344 214.773438 73.355469 213.269531 72.160156 211.410156 C 70.523438 208.890625 68.621094 207.164062 66.808594 206.566406 C 66.453125 206.457031 66.097656 206.390625 65.722656 206.390625 C 65.101562 206.390625 64.460938 206.566406 63.886719 206.898438 C 62.957031 207.429688 62.316406 208.292969 62.140625 209.265625 C 61.761719 211.125 62.292969 213.644531 63.621094 216.320312 C 65.101562 219.308594 65.257812 221.894531 65.058594 223.644531 C 65.832031 223.421875 66.628906 223.15625 67.425781 222.847656 C 67.269531 221.011719 66.652344 217.515625 64.507812 213.425781 C 64.441406 213.292969 64.484375 213.136719 64.617188 213.046875 C 64.75 212.980469 64.90625 213.003906 64.992188 213.136719 L 70.28125 221.585938 C 71.320312 221.054688 72.335938 220.480469 73.332031 219.839844 L 68.710938 210.992188 C 68.644531 210.859375 68.6875 210.679688 68.820312 210.613281 Z M 68.820312 210.613281 " fill-opacity="1" fill-rule="nonzero"/><g clip-path="url(#93b5c3ad40)"><path fill="#fed766" d="M 64.21875 204.066406 C 65.480469 203.648438 66.429688 203.757812 67.625 204.179688 C 69.992188 204.972656 72.269531 207.007812 74.261719 210.039062 C 75.257812 211.566406 76.515625 212.804688 77.910156 213.625 C 78.285156 213.84375 78.730469 214 79.195312 214.175781 C 79.613281 214.332031 80.058594 214.484375 80.476562 214.683594 L 81.429688 215.148438 C 81.496094 215.195312 81.539062 215.238281 81.5625 215.328125 C 81.582031 215.394531 81.582031 215.480469 81.539062 215.546875 L 80.984375 216.453125 C 80.386719 217.472656 79.394531 218.289062 78.507812 219 L 78.484375 219.019531 C 78.332031 219.152344 78.175781 219.285156 78.042969 219.398438 C 76.496094 220.703125 74.8125 221.894531 73 222.9375 C 70.058594 224.617188 66.828125 225.878906 63.664062 226.542969 L 61.851562 226.941406 C 61.828125 226.941406 61.808594 226.941406 61.785156 226.941406 C 61.695312 226.941406 61.628906 226.894531 61.5625 226.828125 C 61.496094 226.742188 61.476562 226.628906 61.519531 226.542969 L 62.25 224.816406 C 62.292969 224.683594 63.488281 221.652344 61.363281 217.40625 C 59.75 214.175781 59.175781 211.167969 59.660156 208.734375 C 59.949219 207.339844 60.371094 206.28125 61.542969 205.394531 C 60.769531 204.378906 58.113281 200.195312 56.5 197.496094 L 48.046875 197.496094 L 48.046875 204.222656 C 48.046875 224.75 64.640625 241.40625 85.121094 241.539062 L 85.121094 197.496094 L 60.347656 197.496094 C 61.808594 200.085938 63.597656 203.160156 64.21875 204.066406 Z M 64.21875 204.066406 " fill-opacity="1" fill-rule="nonzero"/></g><path fill="#fed766" d="M 101.359375 208.601562 L 107.949219 208.335938 C 107.996094 208.335938 108.0625 208.292969 108.0625 208.226562 C 108.0625 208.160156 108.015625 208.117188 107.949219 208.117188 L 101.359375 207.851562 L 101.335938 207.851562 C 101.136719 207.851562 100.984375 208.027344 100.984375 208.226562 C 100.984375 208.46875 101.136719 208.625 101.359375 208.601562 Z M 101.359375 208.601562 " fill-opacity="1" fill-rule="nonzero"/><path fill="#fed766" d="M 100.804688 212.9375 C 101.003906 213.226562 101.226562 213.625 101.359375 214.109375 C 101.425781 214.375 101.46875 214.664062 101.492188 214.996094 C 101.492188 215.148438 101.625 215.261719 101.777344 215.261719 L 101.800781 215.261719 C 101.957031 215.261719 102.089844 215.128906 102.066406 214.972656 C 102 212.9375 100.652344 211.941406 100.585938 211.898438 C 100.453125 211.808594 100.273438 211.832031 100.1875 211.964844 C 100.097656 212.097656 100.121094 212.273438 100.253906 212.363281 C 100.273438 212.382812 100.539062 212.582031 100.804688 212.9375 Z M 100.804688 212.9375 " fill-opacity="1" fill-rule="nonzero"/><g clip-path="url(#e19b0cdc63)"><path fill="#fed766" d="M 89.4375 241.539062 C 91.226562 241.515625 92.976562 241.382812 94.699219 241.140625 C 94.613281 240.34375 94.589844 239.527344 94.546875 238.730469 C 94.414062 235.589844 94.789062 232.449219 96.160156 229.617188 C 97.15625 227.558594 98.636719 225.746094 99.566406 223.667969 C 100.054688 222.539062 100.320312 220.945312 100.429688 220.082031 C 100.472656 219.730469 100.761719 219.484375 101.117188 219.484375 L 106.601562 219.484375 C 106.953125 219.484375 107.242188 219.75 107.285156 220.082031 C 107.398438 220.945312 107.640625 222.539062 108.148438 223.667969 C 109.078125 225.746094 110.5625 227.558594 111.554688 229.617188 C 112.109375 230.765625 112.507812 231.984375 112.75 233.199219 C 121.15625 226.363281 126.53125 215.925781 126.53125 204.246094 L 126.53125 197.519531 L 89.4375 197.519531 Z M 115.292969 219.640625 L 114.742188 220.039062 C 114.542969 220.191406 114.253906 220.191406 114.054688 220.058594 C 110.382812 217.628906 109.234375 213.824219 108.96875 212.628906 C 108.921875 212.40625 109.035156 212.207031 109.253906 212.140625 L 111.070312 211.589844 C 111.3125 211.523438 111.578125 211.675781 111.601562 211.941406 L 111.601562 211.964844 C 111.84375 214.265625 112.90625 216.410156 114.609375 218.003906 C 114.894531 218.269531 115.140625 218.488281 115.359375 218.667969 C 115.625 218.933594 115.605469 219.417969 115.292969 219.640625 Z M 119.628906 211.324219 C 119.453125 211.65625 119.054688 211.765625 118.722656 211.589844 C 118.390625 211.410156 116.355469 209.929688 116.53125 209.621094 C 116.710938 209.289062 119.054688 210.238281 119.363281 210.414062 C 119.695312 210.59375 119.808594 211.011719 119.628906 211.324219 Z M 121.222656 207.40625 C 121.265625 207.785156 121 208.09375 120.625 208.136719 C 120.25 208.183594 117.75 208.136719 117.707031 207.761719 C 117.660156 207.386719 120.117188 206.832031 120.492188 206.808594 C 120.847656 206.789062 121.179688 207.054688 121.222656 207.40625 Z M 118.125 204.15625 C 118.433594 203.980469 118.855469 204.066406 119.03125 204.398438 C 119.230469 204.707031 119.121094 205.128906 118.8125 205.304688 C 118.5 205.503906 116.203125 206.523438 116.003906 206.214844 C 115.824219 205.902344 117.816406 204.355469 118.125 204.15625 Z M 112.925781 206.167969 L 113.746094 206.167969 C 114.894531 206.167969 115.914062 207.054688 115.980469 208.203125 C 116.070312 209.464844 115.050781 210.527344 113.8125 210.527344 L 112.90625 210.527344 L 112.90625 206.167969 Z M 96.914062 208.734375 L 98.4375 207.207031 C 99.101562 206.542969 100.007812 206.167969 100.960938 206.167969 L 111.203125 206.167969 C 111.578125 206.167969 111.886719 206.480469 111.886719 206.855469 L 111.886719 210.085938 C 111.886719 210.4375 111.601562 210.746094 111.246094 210.769531 C 111.15625 210.769531 111.070312 210.769531 110.980469 210.792969 C 109.476562 210.925781 107.441406 211.722656 107 213.359375 C 106.824219 213.976562 106.953125 214.664062 106.953125 215.304688 L 106.953125 216.765625 L 107.863281 216.765625 C 108.171875 216.765625 108.414062 216.964844 108.414062 217.207031 L 108.414062 218.46875 C 108.414062 218.710938 108.148438 218.910156 107.863281 218.910156 L 99.675781 218.910156 C 99.367188 218.910156 99.125 218.710938 99.125 218.46875 L 99.125 217.207031 C 99.125 216.964844 99.367188 216.765625 99.675781 216.765625 L 100.207031 216.765625 L 100.207031 215.859375 C 100.207031 214.574219 99.523438 213.402344 98.417969 212.761719 L 97.355469 212.164062 C 96.136719 211.390625 95.917969 209.730469 96.914062 208.734375 Z M 96.914062 208.734375 " fill-opacity="1" fill-rule="nonzero"/></g><g clip-path="url(#84a68e9b65)"><path fill="#fed766" d="M 61.296875 193.183594 L 59.816406 182.589844 C 59.726562 181.925781 60.191406 181.304688 60.878906 181.21875 L 61.875 181.105469 L 64.261719 180.820312 L 72.117188 179.867188 L 59.042969 179.867188 C 58.644531 179.867188 58.289062 179.582031 58.222656 179.183594 L 57.957031 177.632812 C 57.871094 177.125 58.269531 176.660156 58.777344 176.660156 L 67.382812 176.660156 L 62.207031 164.429688 C 61.941406 163.785156 62.226562 163.035156 62.890625 162.769531 C 63.53125 162.503906 64.285156 162.789062 64.574219 163.453125 C 64.574219 163.476562 64.59375 163.5 64.59375 163.519531 L 69.21875 176.683594 L 79.28125 176.683594 C 79.835938 176.683594 80.234375 177.191406 80.101562 177.722656 L 79.792969 179.050781 C 79.703125 179.425781 79.347656 179.714844 78.972656 179.714844 L 77.824219 179.714844 L 75.808594 193.226562 L 85.121094 193.226562 L 85.121094 139.035156 L 31.988281 180.90625 L 31.988281 188.582031 L 48.046875 188.871094 L 48.046875 193.207031 L 61.296875 193.207031 Z M 69.085938 171.175781 C 69.085938 170.753906 69.4375 170.398438 69.859375 170.398438 C 70.28125 170.398438 70.632812 170.753906 70.632812 171.175781 C 70.632812 171.59375 70.28125 171.949219 69.859375 171.949219 C 69.4375 171.949219 69.085938 171.617188 69.085938 171.175781 Z M 71.363281 175.179688 C 70.765625 175.179688 70.28125 174.691406 70.28125 174.09375 C 70.28125 173.496094 70.765625 173.011719 71.363281 173.011719 C 71.960938 173.011719 72.449219 173.496094 72.449219 174.09375 C 72.449219 174.691406 71.960938 175.179688 71.363281 175.179688 Z M 68.820312 166.816406 C 73.289062 166.816406 76.914062 170.730469 76.914062 175.554688 L 74.726562 175.554688 C 74.726562 171.949219 72.070312 169.007812 68.820312 169.007812 C 68.355469 169.007812 67.914062 169.074219 67.46875 169.183594 L 66.742188 167.125 C 67.425781 166.925781 68.113281 166.816406 68.820312 166.816406 Z M 63.332031 169.160156 L 64.285156 171.394531 C 63.445312 172.523438 62.9375 173.984375 62.9375 175.554688 L 60.746094 175.554688 C 60.746094 173.03125 61.742188 170.753906 63.332031 169.160156 Z M 63.332031 169.160156 " fill-opacity="1" fill-rule="nonzero"/></g><g clip-path="url(#6e926fb30c)"><path fill="#fed766" d="M 124.273438 166.527344 L 124.273438 141.777344 L 109.144531 141.777344 C 105.273438 141.777344 102.132812 144.917969 102.132812 148.789062 L 89.4375 138.96875 L 89.4375 193.207031 L 94.878906 193.207031 C 95.1875 191.878906 95.585938 190.597656 96.027344 189.3125 C 96.316406 188.539062 96.601562 187.765625 96.914062 187.011719 C 97.246094 186.261719 97.574219 185.507812 97.953125 184.777344 C 98.683594 183.296875 99.5 181.878906 100.453125 180.488281 C 100.671875 180.15625 100.984375 179.933594 101.3125 179.800781 L 102.753906 177.632812 L 93.96875 162.261719 L 122.285156 182.921875 L 105.25 179.558594 L 103.878906 181.4375 C 103.902344 181.8125 103.8125 182.191406 103.59375 182.523438 L 103.570312 182.542969 C 102.796875 183.78125 102.089844 185.109375 101.492188 186.460938 C 101.160156 187.125 100.917969 187.832031 100.628906 188.515625 C 100.386719 189.226562 100.121094 189.910156 99.898438 190.617188 C 99.632812 191.480469 99.390625 192.34375 99.191406 193.207031 L 126.488281 193.207031 L 126.488281 188.871094 L 142.589844 188.871094 L 142.589844 180.265625 Z M 113.480469 162.460938 L 113.613281 159.449219 L 114.695312 162.261719 L 117.707031 162.394531 L 114.894531 163.476562 L 114.761719 166.484375 L 113.679688 163.675781 L 110.671875 163.542969 Z M 111.222656 168.144531 L 111.3125 166.308594 L 111.976562 168.035156 L 113.8125 168.121094 L 112.085938 168.785156 L 112 170.621094 L 111.335938 168.894531 L 109.5 168.808594 Z M 104.144531 162.105469 L 104.257812 159.449219 L 105.207031 161.929688 L 107.863281 162.039062 L 105.382812 162.988281 L 105.273438 165.644531 L 104.324219 163.167969 L 101.667969 163.054688 Z M 95.03125 162.082031 L 97.375 162.171875 L 121.332031 179.667969 L 122.128906 181.878906 Z M 119.984375 172.414062 L 119.875 175.066406 L 118.921875 172.589844 L 116.269531 172.480469 L 118.746094 171.527344 L 118.855469 168.875 L 119.808594 171.351562 L 122.460938 171.460938 Z M 119.984375 172.414062 " fill-opacity="1" fill-rule="nonzero"/></g><g fill="#eeeef2" fill-opacity="1"><g transform="translate(166.766991, 210.89713)"><g><path d="M 16.078125 -28 C 20.160156 -28 23.382812 -26.976562 25.75 -24.9375 C 28.125 -22.894531 29.3125 -19.984375 29.3125 -16.203125 L 20.875 -16.203125 C 20.875 -17.796875 20.453125 -19.0625 19.609375 -20 C 18.773438 -20.9375 17.585938 -21.40625 16.046875 -21.40625 C 14.253906 -21.40625 12.9375 -20.84375 12.09375 -19.71875 C 11.257812 -18.601562 10.84375 -17.046875 10.84375 -15.046875 L 10.84375 -12.484375 C 10.84375 -10.503906 11.257812 -8.945312 12.09375 -7.8125 C 12.9375 -6.6875 14.222656 -6.125 15.953125 -6.125 C 17.660156 -6.125 18.953125 -6.5625 19.828125 -7.4375 C 20.710938 -8.320312 21.15625 -9.5625 21.15625 -11.15625 L 29.3125 -11.15625 C 29.3125 -7.394531 28.160156 -4.515625 25.859375 -2.515625 C 23.554688 -0.515625 20.296875 0.484375 16.078125 0.484375 C 11.390625 0.484375 7.835938 -0.710938 5.421875 -3.109375 C 3.003906 -5.515625 1.796875 -9.066406 1.796875 -13.765625 C 1.796875 -18.453125 3.003906 -21.992188 5.421875 -24.390625 C 7.835938 -26.796875 11.390625 -28 16.078125 -28 Z M 16.078125 -28 "/></g></g></g><g fill="#eeeef2" fill-opacity="1"><g transform="translate(195.163901, 210.89713)"><g><path d="M 2.6875 0 L 2.6875 -29 L 10.640625 -29 L 10.640625 0 Z M 2.6875 0 "/></g></g></g><g fill="#eeeef2" fill-opacity="1"><g transform="translate(205.762583, 210.89713)"><g><path d="M 13.3125 -21.59375 C 17.1875 -21.59375 20.140625 -20.6875 22.171875 -18.875 C 24.210938 -17.0625 25.234375 -14.289062 25.234375 -10.5625 L 25.234375 -9.203125 L 9.40625 -9.203125 C 9.40625 -7.679688 9.742188 -6.53125 10.421875 -5.75 C 11.097656 -4.976562 12.171875 -4.59375 13.640625 -4.59375 C 14.972656 -4.59375 15.953125 -4.875 16.578125 -5.4375 C 17.203125 -6 17.515625 -6.75 17.515625 -7.6875 L 25.234375 -7.6875 C 25.234375 -5.125 24.257812 -3.117188 22.3125 -1.671875 C 20.375 -0.234375 17.535156 0.484375 13.796875 0.484375 C 9.878906 0.484375 6.835938 -0.425781 4.671875 -2.25 C 2.515625 -4.082031 1.4375 -6.851562 1.4375 -10.5625 C 1.4375 -14.1875 2.488281 -16.929688 4.59375 -18.796875 C 6.707031 -20.660156 9.613281 -21.59375 13.3125 -21.59375 Z M 13.640625 -16.515625 C 11.128906 -16.515625 9.726562 -15.328125 9.4375 -12.953125 L 17.203125 -12.953125 C 17.203125 -14.046875 16.882812 -14.910156 16.25 -15.546875 C 15.625 -16.191406 14.753906 -16.515625 13.640625 -16.515625 Z M 13.640625 -16.515625 "/></g></g></g><g fill="#eeeef2" fill-opacity="1"><g transform="translate(229.719929, 210.89713)"><g><path d="M 12.84375 -21.59375 C 16.070312 -21.59375 18.695312 -21.050781 20.71875 -19.96875 C 22.75 -18.894531 23.765625 -17.144531 23.765625 -14.71875 L 23.765625 -6.484375 C 23.765625 -6.023438 23.867188 -5.648438 24.078125 -5.359375 C 24.296875 -5.066406 24.617188 -4.921875 25.046875 -4.921875 L 26.484375 -4.921875 L 26.484375 -0.3125 C 26.398438 -0.257812 26.191406 -0.171875 25.859375 -0.046875 C 25.523438 0.0664062 25.050781 0.179688 24.4375 0.296875 C 23.820312 0.421875 23.113281 0.484375 22.3125 0.484375 C 20.769531 0.484375 19.5 0.25 18.5 -0.21875 C 17.5 -0.6875 16.8125 -1.332031 16.4375 -2.15625 C 15.425781 -1.351562 14.289062 -0.710938 13.03125 -0.234375 C 11.78125 0.242188 10.316406 0.484375 8.640625 0.484375 C 3.679688 0.484375 1.203125 -1.488281 1.203125 -5.4375 C 1.203125 -7.488281 1.753906 -9.054688 2.859375 -10.140625 C 3.960938 -11.222656 5.554688 -11.960938 7.640625 -12.359375 C 9.722656 -12.753906 12.441406 -12.953125 15.796875 -12.953125 L 15.796875 -14 C 15.796875 -14.820312 15.507812 -15.445312 14.9375 -15.875 C 14.363281 -16.300781 13.625 -16.515625 12.71875 -16.515625 C 11.894531 -16.515625 11.179688 -16.367188 10.578125 -16.078125 C 9.984375 -15.785156 9.6875 -15.320312 9.6875 -14.6875 L 9.6875 -14.515625 L 1.84375 -14.515625 C 1.8125 -14.648438 1.796875 -14.835938 1.796875 -15.078125 C 1.796875 -17.078125 2.75 -18.660156 4.65625 -19.828125 C 6.5625 -21.003906 9.289062 -21.59375 12.84375 -21.59375 Z M 15.796875 -9.203125 C 13.535156 -9.203125 11.863281 -8.953125 10.78125 -8.453125 C 9.695312 -7.960938 9.15625 -7.304688 9.15625 -6.484375 C 9.15625 -5.148438 10.0625 -4.484375 11.875 -4.484375 C 12.914062 -4.484375 13.828125 -4.757812 14.609375 -5.3125 C 15.398438 -5.875 15.796875 -6.570312 15.796875 -7.40625 Z M 15.796875 -9.203125 "/></g></g></g><g fill="#eeeef2" fill-opacity="1"><g transform="translate(253.677275, 210.89713)"><g><path d="M 16.953125 -21.59375 C 19.410156 -21.59375 21.25 -20.910156 22.46875 -19.546875 C 23.695312 -18.191406 24.3125 -16.238281 24.3125 -13.6875 L 24.3125 0 L 16.359375 0 L 16.359375 -12.71875 C 16.359375 -13.625 16.125 -14.347656 15.65625 -14.890625 C 15.1875 -15.441406 14.53125 -15.71875 13.6875 -15.71875 C 12.695312 -15.71875 11.894531 -15.394531 11.28125 -14.75 C 10.664062 -14.113281 10.359375 -13.332031 10.359375 -12.40625 L 10.359375 0 L 2.40625 0 L 2.40625 -21.125 L 8.921875 -21.125 L 9.4375 -17.921875 C 10.269531 -19.035156 11.359375 -19.925781 12.703125 -20.59375 C 14.046875 -21.257812 15.460938 -21.59375 16.953125 -21.59375 Z M 16.953125 -21.59375 "/></g></g></g><g fill="#eeeef2" fill-opacity="1"><g transform="translate(277.63462, 210.89713)"><g><path d="M 2.6875 -23.59375 L 2.6875 -29 L 10.640625 -29 L 10.640625 -23.59375 Z M 2.6875 0 L 2.6875 -21.125 L 10.640625 -21.125 L 10.640625 0 Z M 2.6875 0 "/></g></g></g><g fill="#eeeef2" fill-opacity="1"><g transform="translate(288.233302, 210.89713)"><g><path d="M 16.953125 -21.59375 C 19.410156 -21.59375 21.25 -20.910156 22.46875 -19.546875 C 23.695312 -18.191406 24.3125 -16.238281 24.3125 -13.6875 L 24.3125 0 L 16.359375 0 L 16.359375 -12.71875 C 16.359375 -13.625 16.125 -14.347656 15.65625 -14.890625 C 15.1875 -15.441406 14.53125 -15.71875 13.6875 -15.71875 C 12.695312 -15.71875 11.894531 -15.394531 11.28125 -14.75 C 10.664062 -14.113281 10.359375 -13.332031 10.359375 -12.40625 L 10.359375 0 L 2.40625 0 L 2.40625 -21.125 L 8.921875 -21.125 L 9.4375 -17.921875 C 10.269531 -19.035156 11.359375 -19.925781 12.703125 -20.59375 C 14.046875 -21.257812 15.460938 -21.59375 16.953125 -21.59375 Z M 16.953125 -21.59375 "/></g></g></g><g fill="#eeeef2" fill-opacity="1"><g transform="translate(312.190648, 210.89713)"><g><path d="M 26.15625 -25.078125 C 26.15625 -23.453125 25.75 -22.195312 24.9375 -21.3125 C 24.125 -20.4375 22.90625 -19.785156 21.28125 -19.359375 C 22.050781 -18.773438 22.65625 -18.085938 23.09375 -17.296875 C 23.539062 -16.515625 23.765625 -15.679688 23.765625 -14.796875 C 23.765625 -12.554688 22.914062 -10.863281 21.21875 -9.71875 C 19.53125 -8.570312 17.414062 -8 14.875 -8 L 11.84375 -8 C 10.15625 -8 9.3125 -7.613281 9.3125 -6.84375 C 9.3125 -6.46875 9.5 -6.164062 9.875 -5.9375 C 10.25 -5.707031 10.90625 -5.59375 11.84375 -5.59375 L 19.046875 -5.59375 C 21.390625 -5.59375 23.160156 -4.976562 24.359375 -3.75 C 25.554688 -2.53125 26.15625 -0.894531 26.15625 1.15625 C 26.15625 2.675781 25.753906 3.984375 24.953125 5.078125 C 24.160156 6.171875 23.082031 7 21.71875 7.5625 C 20.363281 8.125 18.882812 8.40625 17.28125 8.40625 L 5.515625 8.40625 C 4.554688 8.40625 3.671875 8.175781 2.859375 7.71875 C 2.046875 7.269531 1.398438 6.648438 0.921875 5.859375 C 0.441406 5.078125 0.203125 4.203125 0.203125 3.234375 C 0.203125 2.203125 0.519531 1.265625 1.15625 0.421875 C 1.800781 -0.421875 2.601562 -1.054688 3.5625 -1.484375 C 2.914062 -1.929688 2.40625 -2.472656 2.03125 -3.109375 C 1.664062 -3.753906 1.484375 -4.453125 1.484375 -5.203125 C 1.484375 -6.242188 1.867188 -7.179688 2.640625 -8.015625 C 3.410156 -8.859375 4.367188 -9.425781 5.515625 -9.71875 C 4.472656 -10.382812 3.644531 -11.148438 3.03125 -12.015625 C 2.425781 -12.878906 2.125 -13.796875 2.125 -14.765625 C 2.125 -17.210938 3.113281 -18.960938 5.09375 -20.015625 C 7.082031 -21.066406 9.71875 -21.59375 13 -21.59375 C 14.4375 -21.59375 15.597656 -21.515625 16.484375 -21.359375 C 17.785156 -22.179688 18.628906 -22.929688 19.015625 -23.609375 C 19.398438 -24.296875 19.59375 -24.785156 19.59375 -25.078125 Z M 12.921875 -17.4375 C 12.035156 -17.4375 11.3125 -17.207031 10.75 -16.75 C 10.195312 -16.300781 9.921875 -15.648438 9.921875 -14.796875 C 9.921875 -13.921875 10.179688 -13.257812 10.703125 -12.8125 C 11.222656 -12.375 11.960938 -12.15625 12.921875 -12.15625 C 13.878906 -12.15625 14.628906 -12.375 15.171875 -12.8125 C 15.722656 -13.257812 16 -13.921875 16 -14.796875 C 16 -15.679688 15.722656 -16.34375 15.171875 -16.78125 C 14.628906 -17.21875 13.878906 -17.4375 12.921875 -17.4375 Z M 9.84375 0 C 9.226562 0 8.726562 0.164062 8.34375 0.5 C 7.957031 0.832031 7.765625 1.304688 7.765625 1.921875 C 7.765625 2.535156 7.960938 3.023438 8.359375 3.390625 C 8.753906 3.765625 9.25 3.953125 9.84375 3.953125 L 16.078125 3.953125 C 16.660156 3.953125 17.160156 3.769531 17.578125 3.40625 C 17.992188 3.050781 18.203125 2.566406 18.203125 1.953125 C 18.203125 1.347656 18 0.867188 17.59375 0.515625 C 17.195312 0.171875 16.691406 0 16.078125 0 Z M 9.84375 0 "/></g></g></g><g fill="#eeeef2" fill-opacity="1"><g transform="translate(166.766991, 171.750531)"><g><path d="M 16.796875 -28 C 19.441406 -28 21.816406 -27.597656 23.921875 -26.796875 C 26.023438 -25.992188 27.695312 -24.8125 28.9375 -23.25 C 30.175781 -21.695312 30.796875 -19.800781 30.796875 -17.5625 L 22.359375 -17.5625 C 22.359375 -18.707031 21.847656 -19.632812 20.828125 -20.34375 C 19.816406 -21.050781 18.59375 -21.40625 17.15625 -21.40625 C 15.082031 -21.40625 13.507812 -20.847656 12.4375 -19.734375 C 11.375 -18.628906 10.84375 -17.066406 10.84375 -15.046875 L 10.84375 -12.484375 C 10.84375 -10.453125 11.375 -8.882812 12.4375 -7.78125 C 13.507812 -6.675781 15.082031 -6.125 17.15625 -6.125 C 18.59375 -6.125 19.816406 -6.460938 20.828125 -7.140625 C 21.847656 -7.816406 22.359375 -8.691406 22.359375 -9.765625 L 16.125 -9.765625 L 16.125 -15.359375 L 30.796875 -15.359375 L 30.796875 0 L 26.234375 0 L 25.359375 -2.71875 C 22.847656 -0.582031 19.566406 0.484375 15.515625 0.484375 C 10.960938 0.484375 7.535156 -0.707031 5.234375 -3.09375 C 2.941406 -5.488281 1.796875 -9.046875 1.796875 -13.765625 C 1.796875 -18.429688 3.09375 -21.96875 5.6875 -24.375 C 8.289062 -26.789062 11.992188 -28 16.796875 -28 Z M 16.796875 -28 "/></g></g></g><g fill="#eeeef2" fill-opacity="1"><g transform="translate(197.363684, 171.750531)"><g><path d="M 13.3125 -21.59375 C 17.019531 -21.59375 19.929688 -20.648438 22.046875 -18.765625 C 24.171875 -16.890625 25.234375 -14.15625 25.234375 -10.5625 C 25.234375 -6.957031 24.171875 -4.210938 22.046875 -2.328125 C 19.929688 -0.453125 17.019531 0.484375 13.3125 0.484375 C 9.613281 0.484375 6.707031 -0.445312 4.59375 -2.3125 C 2.488281 -4.1875 1.4375 -6.9375 1.4375 -10.5625 C 1.4375 -14.1875 2.488281 -16.929688 4.59375 -18.796875 C 6.707031 -20.660156 9.613281 -21.59375 13.3125 -21.59375 Z M 13.3125 -16.203125 C 10.707031 -16.203125 9.40625 -14.695312 9.40625 -11.6875 L 9.40625 -9.40625 C 9.40625 -6.414062 10.707031 -4.921875 13.3125 -4.921875 C 15.957031 -4.921875 17.28125 -6.414062 17.28125 -9.40625 L 17.28125 -11.6875 C 17.28125 -14.695312 15.957031 -16.203125 13.3125 -16.203125 Z M 13.3125 -16.203125 "/></g></g></g><g fill="#eeeef2" fill-opacity="1"><g transform="translate(221.32103, 171.750531)"><g><path d="M 18.40625 -27.515625 C 20.101562 -27.515625 21.617188 -27.117188 22.953125 -26.328125 C 24.285156 -25.546875 25.328125 -24.46875 26.078125 -23.09375 C 26.828125 -21.726562 27.203125 -20.191406 27.203125 -18.484375 L 27.203125 -17.953125 C 27.203125 -16.253906 26.828125 -14.707031 26.078125 -13.3125 C 25.328125 -11.925781 24.285156 -10.835938 22.953125 -10.046875 C 21.617188 -9.265625 20.101562 -8.875 18.40625 -8.875 L 11.796875 -8.875 L 11.796875 0 L 2.953125 0 L 2.953125 -27.515625 Z M 11.796875 -15.3125 L 15.4375 -15.3125 C 16.375 -15.3125 17.070312 -15.550781 17.53125 -16.03125 C 18 -16.519531 18.234375 -17.175781 18.234375 -18 L 18.234375 -18.3125 C 18.234375 -19.164062 18 -19.828125 17.53125 -20.296875 C 17.070312 -20.765625 16.375 -21 15.4375 -21 L 11.796875 -21 Z M 11.796875 -15.3125 "/></g></g></g><g fill="#eeeef2" fill-opacity="1"><g transform="translate(247.478159, 171.750531)"><g><path d="M 15.234375 -21.640625 C 15.847656 -21.640625 16.394531 -21.566406 16.875 -21.421875 C 17.351562 -21.273438 17.59375 -21.1875 17.59375 -21.15625 L 17.59375 -14.484375 L 15.046875 -14.484375 C 13.390625 -14.484375 12.191406 -14.054688 11.453125 -13.203125 C 10.722656 -12.347656 10.359375 -11.082031 10.359375 -9.40625 L 10.359375 0 L 2.40625 0 L 2.40625 -21.125 L 8.921875 -21.125 L 9.4375 -17.921875 C 9.914062 -19.148438 10.675781 -20.078125 11.71875 -20.703125 C 12.757812 -21.328125 13.929688 -21.640625 15.234375 -21.640625 Z M 15.234375 -21.640625 "/></g></g></g><g fill="#eeeef2" fill-opacity="1"><g transform="translate(262.516393, 171.750531)"><g><path d="M 13.3125 -21.59375 C 17.019531 -21.59375 19.929688 -20.648438 22.046875 -18.765625 C 24.171875 -16.890625 25.234375 -14.15625 25.234375 -10.5625 C 25.234375 -6.957031 24.171875 -4.210938 22.046875 -2.328125 C 19.929688 -0.453125 17.019531 0.484375 13.3125 0.484375 C 9.613281 0.484375 6.707031 -0.445312 4.59375 -2.3125 C 2.488281 -4.1875 1.4375 -6.9375 1.4375 -10.5625 C 1.4375 -14.1875 2.488281 -16.929688 4.59375 -18.796875 C 6.707031 -20.660156 9.613281 -21.59375 13.3125 -21.59375 Z M 13.3125 -16.203125 C 10.707031 -16.203125 9.40625 -14.695312 9.40625 -11.6875 L 9.40625 -9.40625 C 9.40625 -6.414062 10.707031 -4.921875 13.3125 -4.921875 C 15.957031 -4.921875 17.28125 -6.414062 17.28125 -9.40625 L 17.28125 -11.6875 C 17.28125 -14.695312 15.957031 -16.203125 13.3125 -16.203125 Z M 13.3125 -16.203125 "/></g></g></g><g fill="#eeeef2" fill-opacity="1"><g transform="translate(166.766991, 235.644565)"><g><path d="M 6.125 0 L 5.78125 -1.109375 L 3.03125 -1.109375 L 2.703125 0 L 0.109375 0 L 2.984375 -7.875 L 5.921875 -7.875 L 8.796875 0 Z M 3.5625 -2.875 L 5.265625 -2.875 L 4.4375 -5.671875 L 4.390625 -5.671875 Z M 3.5625 -2.875 "/></g></g></g><g fill="#eeeef2" fill-opacity="1"><g transform="translate(181.024482, 235.644565)"><g/></g></g><g fill="#eeeef2" fill-opacity="1"><g transform="translate(190.192293, 235.644565)"><g><path d="M 0.453125 -2.234375 L 0.453125 -4.046875 L 3.359375 -4.046875 L 3.359375 -2.234375 Z M 0.453125 -2.234375 "/></g></g></g><g fill="#eeeef2" fill-opacity="1"><g transform="translate(199.360106, 235.644565)"><g/></g></g><g fill="#eeeef2" fill-opacity="1"><g transform="translate(208.527916, 235.644565)"><g><path d="M 4.15625 -1.890625 L 7.90625 -1.890625 L 7.90625 0 L 0.28125 0 L 0.28125 -0.8125 L 3.921875 -5.984375 L 0.546875 -5.984375 L 0.546875 -7.875 L 7.8125 -7.875 L 7.8125 -7.0625 Z M 4.15625 -1.890625 "/></g></g></g><g fill="#eeeef2" fill-opacity="1"><g transform="translate(222.144913, 235.644565)"><g/></g></g><g fill="#eeeef2" fill-opacity="1"><g transform="translate(231.312723, 235.644565)"><g><path d="M 4.15625 -8 C 5.15625 -8 5.976562 -7.796875 6.625 -7.390625 C 7.28125 -6.984375 7.613281 -6.378906 7.625 -5.578125 L 7.625 -5.4375 L 5.265625 -5.4375 L 5.265625 -5.484375 C 5.265625 -5.710938 5.179688 -5.90625 5.015625 -6.0625 C 4.847656 -6.21875 4.59375 -6.296875 4.25 -6.296875 C 3.90625 -6.296875 3.644531 -6.242188 3.46875 -6.140625 C 3.289062 -6.046875 3.203125 -5.925781 3.203125 -5.78125 C 3.203125 -5.570312 3.320312 -5.414062 3.5625 -5.3125 C 3.8125 -5.21875 4.207031 -5.117188 4.75 -5.015625 C 5.382812 -4.878906 5.90625 -4.738281 6.3125 -4.59375 C 6.71875 -4.457031 7.070312 -4.226562 7.375 -3.90625 C 7.675781 -3.59375 7.832031 -3.160156 7.84375 -2.609375 C 7.84375 -1.679688 7.523438 -0.988281 6.890625 -0.53125 C 6.265625 -0.0820312 5.425781 0.140625 4.375 0.140625 C 3.15625 0.140625 2.203125 -0.0625 1.515625 -0.46875 C 0.828125 -0.882812 0.484375 -1.617188 0.484375 -2.671875 L 2.875 -2.671875 C 2.875 -2.265625 2.976562 -1.992188 3.1875 -1.859375 C 3.394531 -1.734375 3.71875 -1.671875 4.15625 -1.671875 C 4.46875 -1.671875 4.726562 -1.703125 4.9375 -1.765625 C 5.15625 -1.835938 5.265625 -1.984375 5.265625 -2.203125 C 5.265625 -2.390625 5.144531 -2.53125 4.90625 -2.625 C 4.675781 -2.71875 4.300781 -2.816406 3.78125 -2.921875 C 3.132812 -3.066406 2.601562 -3.210938 2.1875 -3.359375 C 1.769531 -3.503906 1.40625 -3.75 1.09375 -4.09375 C 0.78125 -4.4375 0.625 -4.898438 0.625 -5.484375 C 0.625 -6.347656 0.957031 -6.984375 1.625 -7.390625 C 2.289062 -7.796875 3.132812 -8 4.15625 -8 Z M 4.15625 -8 "/></g></g></g><g fill="#eeeef2" fill-opacity="1"><g transform="translate(244.929721, 235.644565)"><g><path d="M 0.84375 -7.875 L 7.65625 -7.875 L 7.65625 -5.984375 L 3.375 -5.984375 L 3.375 -4.890625 L 7.03125 -4.890625 L 7.03125 -3.09375 L 3.375 -3.09375 L 3.375 -1.890625 L 7.734375 -1.890625 L 7.734375 0 L 0.84375 0 Z M 0.84375 -7.875 "/></g></g></g><g fill="#eeeef2" fill-opacity="1"><g transform="translate(258.546719, 235.644565)"><g><path d="M 8.3125 -5.453125 C 8.3125 -4.972656 8.179688 -4.535156 7.921875 -4.140625 C 7.660156 -3.753906 7.285156 -3.472656 6.796875 -3.296875 L 8.546875 0 L 5.703125 0 L 4.3125 -2.875 L 3.375 -2.875 L 3.375 0 L 0.84375 0 L 0.84375 -7.875 L 5.65625 -7.875 C 6.226562 -7.875 6.710938 -7.765625 7.109375 -7.546875 C 7.503906 -7.328125 7.800781 -7.03125 8 -6.65625 C 8.207031 -6.289062 8.3125 -5.890625 8.3125 -5.453125 Z M 5.734375 -5.359375 C 5.734375 -5.554688 5.664062 -5.722656 5.53125 -5.859375 C 5.394531 -6.003906 5.226562 -6.078125 5.03125 -6.078125 L 3.375 -6.078125 L 3.375 -4.625 L 5.03125 -4.625 C 5.226562 -4.625 5.394531 -4.691406 5.53125 -4.828125 C 5.664062 -4.972656 5.734375 -5.148438 5.734375 -5.359375 Z M 5.734375 -5.359375 "/></g></g></g><g fill="#eeeef2" fill-opacity="1"><g transform="translate(272.804208, 235.644565)"><g><path d="M 2.984375 0 L 0.1875 -7.875 L 2.890625 -7.875 L 4.46875 -2.609375 L 4.515625 -2.609375 L 6.109375 -7.875 L 8.6875 -7.875 L 5.90625 0 Z M 2.984375 0 "/></g></g></g><g fill="#eeeef2" fill-opacity="1"><g transform="translate(287.061703, 235.644565)"><g><path d="M 0.953125 0 L 0.953125 -7.875 L 3.484375 -7.875 L 3.484375 0 Z M 0.953125 0 "/></g></g></g><g fill="#eeeef2" fill-opacity="1"><g transform="translate(296.870022, 235.644565)"><g><path d="M 4.59375 -8 C 5.757812 -8 6.679688 -7.707031 7.359375 -7.125 C 8.046875 -6.539062 8.390625 -5.707031 8.390625 -4.625 L 5.96875 -4.625 C 5.96875 -5.082031 5.847656 -5.445312 5.609375 -5.71875 C 5.367188 -5.988281 5.03125 -6.125 4.59375 -6.125 C 4.070312 -6.125 3.691406 -5.960938 3.453125 -5.640625 C 3.210938 -5.316406 3.09375 -4.867188 3.09375 -4.296875 L 3.09375 -3.5625 C 3.09375 -3 3.210938 -2.554688 3.453125 -2.234375 C 3.691406 -1.910156 4.0625 -1.75 4.5625 -1.75 C 5.050781 -1.75 5.421875 -1.875 5.671875 -2.125 C 5.921875 -2.375 6.046875 -2.726562 6.046875 -3.1875 L 8.390625 -3.1875 C 8.390625 -2.113281 8.054688 -1.289062 7.390625 -0.71875 C 6.734375 -0.144531 5.800781 0.140625 4.59375 0.140625 C 3.25 0.140625 2.234375 -0.203125 1.546875 -0.890625 C 0.859375 -1.578125 0.515625 -2.59375 0.515625 -3.9375 C 0.515625 -5.28125 0.859375 -6.289062 1.546875 -6.96875 C 2.234375 -7.65625 3.25 -8 4.59375 -8 Z M 4.59375 -8 "/></g></g></g><g fill="#eeeef2" fill-opacity="1"><g transform="translate(311.127517, 235.644565)"><g><path d="M 0.84375 -7.875 L 7.65625 -7.875 L 7.65625 -5.984375 L 3.375 -5.984375 L 3.375 -4.890625 L 7.03125 -4.890625 L 7.03125 -3.09375 L 3.375 -3.09375 L 3.375 -1.890625 L 7.734375 -1.890625 L 7.734375 0 L 0.84375 0 Z M 0.84375 -7.875 "/></g></g></g><g fill="#eeeef2" fill-opacity="1"><g transform="translate(324.744521, 235.644565)"><g><path d="M 4.15625 -8 C 5.15625 -8 5.976562 -7.796875 6.625 -7.390625 C 7.28125 -6.984375 7.613281 -6.378906 7.625 -5.578125 L 7.625 -5.4375 L 5.265625 -5.4375 L 5.265625 -5.484375 C 5.265625 -5.710938 5.179688 -5.90625 5.015625 -6.0625 C 4.847656 -6.21875 4.59375 -6.296875 4.25 -6.296875 C 3.90625 -6.296875 3.644531 -6.242188 3.46875 -6.140625 C 3.289062 -6.046875 3.203125 -5.925781 3.203125 -5.78125 C 3.203125 -5.570312 3.320312 -5.414062 3.5625 -5.3125 C 3.8125 -5.21875 4.207031 -5.117188 4.75 -5.015625 C 5.382812 -4.878906 5.90625 -4.738281 6.3125 -4.59375 C 6.71875 -4.457031 7.070312 -4.226562 7.375 -3.90625 C 7.675781 -3.59375 7.832031 -3.160156 7.84375 -2.609375 C 7.84375 -1.679688 7.523438 -0.988281 6.890625 -0.53125 C 6.265625 -0.0820312 5.425781 0.140625 4.375 0.140625 C 3.15625 0.140625 2.203125 -0.0625 1.515625 -0.46875 C 0.828125 -0.882812 0.484375 -1.617188 0.484375 -2.671875 L 2.875 -2.671875 C 2.875 -2.265625 2.976562 -1.992188 3.1875 -1.859375 C 3.394531 -1.734375 3.71875 -1.671875 4.15625 -1.671875 C 4.46875 -1.671875 4.726562 -1.703125 4.9375 -1.765625 C 5.15625 -1.835938 5.265625 -1.984375 5.265625 -2.203125 C 5.265625 -2.390625 5.144531 -2.53125 4.90625 -2.625 C 4.675781 -2.71875 4.300781 -2.816406 3.78125 -2.921875 C 3.132812 -3.066406 2.601562 -3.210938 2.1875 -3.359375 C 1.769531 -3.503906 1.40625 -3.75 1.09375 -4.09375 C 0.78125 -4.4375 0.625 -4.898438 0.625 -5.484375 C 0.625 -6.347656 0.957031 -6.984375 1.625 -7.390625 C 2.289062 -7.796875 3.132812 -8 4.15625 -8 Z M 4.15625 -8 "/></g></g></g></svg>